<?xml version="1.0" encoding="utf-8"?>
<!-- Generator: Adobe Illustrator 25.4.1, SVG Export Plug-In . SVG Version: 6.00 Build 0)  -->
<svg version="1.1" id="Layer_1" xmlns="http://www.w3.org/2000/svg" xmlns:xlink="http://www.w3.org/1999/xlink" x="0px" y="0px"
	 viewBox="0 0 24 24" style="enable-background:new 0 0 24 24;" xml:space="preserve">
<path d="M11.5,22v-4.6C11,18.1,10,19.1,8,19.8c0,0,0.5-1.7,1.9-2.9c-1.3,0.3-3.3,0.2-5.9-1c0,0,2.5-1.4,5.3-1
	c-1.6-1-3.6-2.9-5.1-6.9c0,0,4.5,1.2,6.7,5C8.9,8.2,12,2,12,2c2.4,5.5,1.9,9.1,1.1,11.1c2.2-3.8,6.7-5,6.7-5c-1.5,4-3.5,5.9-5.1,6.9
	c2.8-0.4,5.3,1,5.3,1c-2.7,1.2-4.6,1.2-5.9,1c1.4,1.1,1.9,2.9,1.9,2.9c-2-0.7-3-1.7-3.5-2.5V22H11.5z"/>
</svg>
