<?xml version="1.0" encoding="utf-8"?>
<!-- Generator: Adobe Illustrator 25.4.1, SVG Export Plug-In . SVG Version: 6.00 Build 0)  -->
<svg version="1.1" xmlns="http://www.w3.org/2000/svg" xmlns:xlink="http://www.w3.org/1999/xlink" x="0px" y="0px"
	 viewBox="0 0 24 24" style="enable-background:new 0 0 24 24;" xml:space="preserve">
<style type="text/css">
	.st0{fill:none;}
</style>
<g id="Layer_1">
</g>
<g id="Layer_3">
	<rect x="10.5" y="-1.3" transform="matrix(0.7073 -0.7069 0.7069 0.7073 -5.6041 11.7348)" width="1.8" height="27.9"/>
	<g>
		<path class="st0" d="M8,18c0,1.1,1.8,2,4,2s4-0.9,4-2s-1.8-2-4-2S8,16.9,8,18z M10.5,19c-0.3,0-0.5-0.2-0.5-0.5s0.2-0.5,0.5-0.5
			s0.5,0.2,0.5,0.5S10.8,19,10.5,19z M13.5,18c0.3,0,0.5,0.2,0.5,0.5S13.8,19,13.5,19S13,18.8,13,18.5S13.2,18,13.5,18z"/>
		<path class="st0" d="M10,11c0.6,0,1,0.4,1,1s-0.4,1-1,1s-1-0.4-1-1S9.4,11,10,11z"/>
		<path d="M15,12c0-0.6-0.4-1-1-1c-0.1,0-0.3,0-0.4,0.1l1.3,1.3C15,12.3,15,12.1,15,12z"/>
		<circle cx="10" cy="12" r="1"/>
		<path d="M12,8c2.2,0,4,1.8,4,4c0,0.4-0.1,0.9-0.2,1.2l1.5,1.5C17.8,13.9,18,13,18,12l-0.1-1.2c0.5,0.1,1.2,0.1,1.7,0
			c1-0.3,2.6-1.4,2.3-2.2s-2.1-1-3.2-0.6c-0.6,0.2-1.2,0.6-1.6,1.1l-0.6-0.8C17.2,7,17,4,14,3l0.1,0.1c0.3,0.4,1,1.8,0.2,3.3
			C13.6,6.2,12.8,6,12,6s-1.6,0.2-2.3,0.5C8.9,5,9.6,3.6,9.9,3.1L10,3C8.8,3.4,8,4.2,7.6,5l3.2,3.2C11.2,8.1,11.6,8,12,8z"/>
		<path d="M12,14c-1.1,0-2.2,0.2-3.1,0.6C8.3,13.9,8,13,8,12c0-1.1,0.4-2.1,1.2-2.8l-2-2c0,0.4,0.1,0.8,0.3,1L6.8,9
			c-0.4-0.5-1-0.9-1.6-1.1c-1-0.3-2.9-0.2-3.2,0.6s1.3,2,2.3,2.2c0.5,0.1,1.2,0.1,1.7,0L6,12c0,1.3,0.5,2.6,1.2,3.6
			C6.5,16.3,6,17.1,6,18c0,2.2,2.7,4,6,4c3.3,0,6-1.8,6-4l-3.7-3.7C13.6,14.1,12.8,14,12,14z M16,18c0,1.1-1.8,2-4,2s-4-0.9-4-2
			s1.8-2,4-2S16,16.9,16,18z"/>
		<circle cx="10.5" cy="18.5" r="0.5"/>
		<circle cx="13.5" cy="18.5" r="0.5"/>
	</g>
</g>
</svg>
