<?xml version="1.0" encoding="utf-8"?>
<!-- Generator: Adobe Illustrator 25.4.1, SVG Export Plug-In . SVG Version: 6.00 Build 0)  -->
<svg version="1.1" id="Layer_1" xmlns="http://www.w3.org/2000/svg" xmlns:xlink="http://www.w3.org/1999/xlink" x="0px" y="0px"
	 viewBox="0 0 24 24" style="enable-background:new 0 0 24 24;" xml:space="preserve">
<path d="M21,16c0-0.5,0-0.9-0.1-1.3l1.6-0.8l-0.9-1.8l-1.4,0.7c-0.6-0.8-1.3-1.3-1.9-1.5l0.7-2L17,8.7L16.3,11
	c-1.3-0.1-2.1-0.6-2.6-1.2l1.8-0.9l-0.9-1.8L13,7.9c0-0.3-0.1-1.2-0.7-2l1.6-2.3l-1.7-1.1l-1.4,2.1C10.3,4.3,9.7,4.2,9,4.1V2H7v2.1
	C6.3,4.2,5.7,4.5,5.3,4.9L2.7,2.3L1.3,3.7l2.9,2.9C4,7.4,4,8,4,8H2v2h2c0.1,0.6,0.2,1.4,0.4,2.1l-2.7,0.9l0.6,1.9L5,14.1
	c0.2,0.5,0.5,1,0.8,1.5l-2.4,1.6l1.1,1.7l2.5-1.7c0.6,0.6,1.2,1.1,2,1.5l-1,1.9l1.8,0.9l1-2l-0.2-0.1c1,0.3,2,0.5,3.3,0.6v2h2v-2.1
	c0.8-0.1,1.8-0.3,2.8-0.7l1.5,1.5l1.4-1.4L20.4,18C20.8,17.4,21,16.8,21,16 M8.5,11C7.7,11,7,10.3,7,9.5S7.7,8,8.5,8S10,8.7,10,9.5
	S9.3,11,8.5,11 M11,14c-0.6,0-1-0.4-1-1s0.4-1,1-1s1,0.4,1,1S11.6,14,11,14 M15.5,17c-0.8,0-1.5-0.7-1.5-1.5c0-0.8,0.7-1.5,1.5-1.5
	c0.8,0,1.5,0.7,1.5,1.5C17,16.3,16.3,17,15.5,17z"/>
</svg>
