<?xml version="1.0" encoding="utf-8"?>
<!-- Generator: Adobe Illustrator 25.4.1, SVG Export Plug-In . SVG Version: 6.00 Build 0)  -->
<svg version="1.1" id="Layer_1" xmlns="http://www.w3.org/2000/svg" xmlns:xlink="http://www.w3.org/1999/xlink" x="0px" y="0px"
	 viewBox="0 0 24 24" style="enable-background:new 0 0 24 24;" xml:space="preserve">
<path d="M22.1,21.5L2.4,1.7L1.1,3l3.2,3.2L3.5,6.6C3.2,6.8,3,7.1,3,7.5v9c0,0.4,0.2,0.7,0.5,0.9l7.9,4.4c0.2,0.1,0.4,0.2,0.6,0.2
	s0.4-0.1,0.6-0.2l4.7-2.6l3.6,3.6L22.1,21.5 M5,15.9V9.2l5.3,3l0.7,0.7v6.4L5,15.9 M13,19.3v-4.4l2.8,2.8L13,19.3 M9,5.8L7.6,4.4
	l3.9-2.2C11.6,2.1,11.8,2,12,2s0.4,0.1,0.6,0.2l7.9,4.4C20.8,6.8,21,7.1,21,7.5v9c0,0.4-0.2,0.7-0.5,0.8L19,15.8V9.2l-4.2,2.4
	l-1.5-1.5L18,7.5l-6-3.3L9,5.8z"/>
</svg>
