<?xml version="1.0" encoding="UTF-8"?>
<svg xmlns="http://www.w3.org/2000/svg" viewBox="0 0 415.23 125.14">
  <defs>
    <style>
      .cls-1 {
        fill: #ff4f00;
      }
    </style>
  </defs>
  <g id="t">
    <path class="cls-1" d="M415.23,111.37s-.15-4.47-4.54-4.47-9.79,.88-12.74,.88-6.38-1.19-9.38-4.06-3.52-7.67-3.52-11.54v-26.88h20.43s4.47-.02,4.47-4.47v-8.72s-.07-4.47-4.47-4.47h-20.43V23.19s-.25-4.54-4.47-4.54h-16.41s-4.47,.16-4.47,4.54V92.18s-3.66,32.96,31.49,32.96c15.09,0,19.48-1.46,19.48-1.46,0,0,1.98-.49,3.26-1.57s1.28-2.89,1.28-2.89v-7.84Z"/>
  </g>
  <g id="e">
    <path class="cls-1" d="M313.54,41.94c-46.44,0-42.85,41.71-42.85,41.71,0,0-3.2,41.49,42.77,41.49,42.84,0,40.06-18.04,40.06-20.95s-2.02-4.54-4.54-4.54h-10.91s-5.83,.1-8.86,4.47-13.33,4.39-13.33,4.39c0,0-10.82,.02-14.17-4.1-3.35-4.13-5.16-9.35-5.16-13.11h55.15s4.54-.37,4.54-4.54,3.74-44.82-42.7-44.82Zm16.92,33.91h-34.06s-.59-17.28,17.1-17.28,16.96,17.28,16.96,17.28Z"/>
  </g>
  <g id="l">
    <path class="cls-1" d="M262.75,124.68s4.47-.07,4.47-4.47V24.19s.02-4.54-4.47-4.54h-16.41s-4.47,.27-4.47,4.54V120.21s.2,4.47,4.47,4.47h16.41Z"/>
  </g>
  <g id="b">
    <path class="cls-1" d="M199.07,41.94c-14.72,0-21.17,3.74-21.17,3.74V23.19s-.42-4.54-4.47-4.54h-16.41s-4.47,.27-4.47,4.54V116.94s17.57,8.2,39.26,8.2,46.51-5.99,46.51-41.53-24.54-41.67-39.26-41.67Zm-3.63,65.44c-7.09,1.22-17.52-1.77-17.52-1.77V62.27c4.88-2.11,17.24-2.77,17.24-2.77,0,0,17.24-1.44,17.24,22.61s-9.87,24.05-16.95,25.27Z"/>
  </g>
  <g id="i">
    <path class="cls-1" d="M118.91,121.73s-.22,2.95,4.47,2.95h16.41s4.47,.1,4.47-2.95v-45.88s.05-2.95-4.47-2.95h-16.41s-4.47-.08-4.47,2.95v45.88Z"/>
    <path class="cls-1" d="M127.04,19.34h9.08c8.42,0,8.42-8.42,8.42-8.42v-2.49s.52-8.42-8.42-8.42h-9.08c-8.42,0-8.42,8.42-8.42,8.42v2.49s-.66,8.42,8.42,8.42Z"/>
  </g>
  <g id="n">
    <path class="cls-1" d="M19.85,124.68s6.88-.25,6.88-6.88V54.95l40.5,62.84s4.84,6.88,10.62,6.88h24.32s6.88-.14,6.88-6.88V26.6s-.1-6.96-6.88-6.96h-12.6s-6.88,.26-6.88,6.81V94.75L38.45,26.6s-4.32-6.96-10.11-6.96H6.81s-6.81,.11-6.81,6.96V117.79s.67,6.88,6.96,6.88h12.89Z"/>
  </g>
</svg>